<?xml version="1.0" standalone="no"?>
<!DOCTYPE svg PUBLIC "-//W3C//DTD SVG 20010904//EN"
 "http://www.w3.org/TR/2001/REC-SVG-20010904/DTD/svg10.dtd">
<svg version="1.0" xmlns="http://www.w3.org/2000/svg"
 width="1024.000000pt" height="1024.000000pt" viewBox="0 0 1024.000000 1024.000000"
 preserveAspectRatio="xMidYMid meet">

<g transform="translate(0.000000,1024.000000) scale(0.100000,-0.100000)"
fill="#000000" stroke="none">
<path d="M1645 7250 c-119 -39 -214 -140 -235 -249 -6 -34 -10 -356 -9 -875
l0 -821 24 52 c32 72 103 178 158 239 l47 52 0 647 c0 731 -3 701 74 736 39
17 80 19 686 19 489 0 649 -3 658 -12 9 -9 12 -79 12 -253 0 -234 1 -243 23
-286 16 -29 40 -54 72 -74 l48 -30 256 -3 c158 -2 261 -8 268 -14 10 -8 13
-64 13 -219 0 -198 1 -209 19 -209 18 0 159 -40 194 -55 16 -7 17 7 17 213 0
120 -5 243 -10 272 -24 124 -37 141 -397 501 -230 231 -350 344 -382 360 l-46
24 -715 2 c-686 2 -717 1 -775 -17z"/>
<path d="M7432 6933 c-70 -34 -82 -132 -22 -185 25 -23 40 -28 81 -28 45 0 55
4 85 34 28 28 34 41 34 78 0 52 -21 85 -66 104 -43 18 -71 17 -112 -3z"/>
<path d="M7750 6400 l0 -550 105 0 105 0 0 550 0 550 -105 0 -105 0 0 -550z"/>
<path d="M5130 6894 c-247 -53 -400 -257 -400 -534 0 -157 54 -292 154 -388
106 -102 221 -145 391 -145 256 -1 455 138 516 361 23 82 25 252 4 331 -24 92
-65 163 -134 231 -36 36 -89 78 -118 93 -115 61 -275 81 -413 51z m277 -217
c113 -58 176 -170 176 -317 0 -148 -58 -252 -171 -307 -49 -24 -69 -28 -137
-27 -100 0 -167 27 -226 91 -68 74 -84 120 -84 248 0 100 2 115 28 167 34 70
108 139 174 161 68 24 174 17 240 -16z"/>
<path d="M6900 6705 l0 -105 -70 0 -70 0 0 -80 0 -80 69 0 70 0 3 -222 c3
-209 4 -226 26 -265 12 -24 41 -55 64 -70 38 -26 50 -28 160 -31 l118 -4 0 89
0 88 -55 -3 c-47 -3 -57 -1 -80 22 -25 25 -25 25 -25 211 l0 185 80 0 80 0 0
80 0 80 -80 0 -80 0 0 105 0 105 -105 0 -105 0 0 -105z"/>
<path d="M1906 6678 c-22 -31 -20 -91 3 -119 l19 -24 429 -3 c331 -1 434 1
453 11 22 11 25 20 28 69 5 94 37 88 -473 88 l-444 0 -15 -22z"/>
<path d="M8315 6620 c-180 -27 -282 -182 -212 -320 33 -67 93 -102 233 -136
135 -33 164 -51 164 -98 0 -101 -170 -111 -218 -13 -13 27 -14 27 -117 27
l-104 0 13 -44 c24 -78 80 -141 161 -178 42 -19 66 -23 155 -23 125 0 186 22
248 89 49 53 65 102 60 177 -8 108 -83 168 -267 213 -57 14 -113 33 -123 42
-26 24 -24 79 4 98 47 33 168 12 168 -30 0 -11 20 -14 101 -14 112 0 109 -4
72 78 -44 95 -195 154 -338 132z"/>
<path d="M5950 6330 c0 -244 2 -274 20 -322 38 -103 128 -168 242 -176 97 -7
152 11 210 70 l48 47 0 -52 0 -52 100 3 100 3 0 375 0 374 -105 0 -105 0 0
-232 c0 -209 -2 -237 -20 -276 -44 -98 -198 -109 -264 -19 -20 27 -21 44 -24
278 l-4 249 -99 0 -99 0 0 -270z"/>
<path d="M7390 6226 l0 -375 100 -3 100 -3 0 378 0 377 -100 0 -100 0 0 -374z"/>
<path d="M1906 6268 c-23 -33 -21 -103 4 -128 19 -19 33 -20 493 -20 545 0
517 -5 517 84 0 92 34 86 -518 86 l-481 0 -15 -22z"/>
<path d="M2394 5956 c-14 -11 -20 -30 -24 -77 l-5 -63 -73 -12 c-223 -37 -403
-133 -563 -300 -146 -153 -237 -336 -272 -546 l-13 -73 -77 -5 c-91 -6 -97
-11 -97 -92 0 -77 12 -88 104 -88 l72 0 11 -77 c63 -425 407 -772 836 -844
l77 -13 0 -58 c0 -75 20 -98 85 -98 67 0 95 31 95 103 l0 54 78 12 c241 39
462 168 629 370 l53 65 -25 30 c-13 17 -43 61 -66 97 l-42 67 -37 -57 c-79
-120 -192 -222 -322 -287 -71 -36 -195 -74 -240 -74 l-28 0 0 120 c0 66 0 123
0 128 -1 4 23 14 53 23 144 43 270 146 332 272 33 68 65 171 65 208 0 9 -20
54 -44 100 -48 92 -91 217 -102 299 -6 47 -11 55 -58 90 -60 45 -131 79 -199
95 -26 6 -48 14 -47 18 0 4 0 63 0 131 l0 123 51 -8 c70 -11 142 -36 214 -73
33 -17 63 -32 67 -34 5 -2 17 17 28 43 11 25 34 67 51 92 36 52 42 45 -77 104
-80 39 -250 89 -304 89 -27 0 -28 2 -32 66 -3 50 -9 70 -23 80 -25 18 -106 18
-131 0z m-24 -490 l0 -134 -37 -7 c-21 -4 -71 -22 -111 -41 -135 -62 -250
-204 -284 -351 l-13 -53 -133 0 -134 0 7 52 c23 165 113 327 255 462 65 61
104 87 184 126 84 41 195 75 254 79 9 1 12 -32 12 -133z m235 -378 c62 -32
129 -102 157 -166 16 -34 22 -68 22 -127 1 -68 -3 -88 -27 -136 -30 -63 -92
-125 -159 -161 -36 -19 -58 -23 -138 -23 -84 0 -101 3 -146 27 -117 61 -195
201 -180 322 16 121 100 232 210 276 73 29 191 23 261 -12z m-662 -451 c44
-148 143 -269 279 -337 44 -22 88 -40 98 -40 48 0 50 -5 50 -141 0 -148 9
-138 -103 -113 -282 63 -525 304 -592 586 -27 116 -35 108 118 108 l132 0 18
-63z"/>
<path d="M2392 4920 c-51 -32 -74 -76 -69 -138 11 -147 207 -183 267 -49 25
54 25 78 0 128 -38 74 -128 101 -198 59z"/>
<path d="M3457 5834 c-100 -24 -214 -90 -293 -170 -194 -195 -239 -492 -115
-759 100 -215 452 -780 533 -855 32 -30 52 -25 93 23 59 68 255 369 354 542
184 323 221 421 221 584 -1 311 -186 557 -476 631 -91 24 -230 25 -317 4z
m296 -367 c161 -95 195 -300 72 -445 -14 -17 -53 -45 -87 -61 -108 -54 -225
-38 -317 45 -69 62 -95 126 -89 224 3 43 12 89 22 108 29 55 88 114 141 139
43 21 62 24 131 20 65 -3 90 -8 127 -30z"/>
<path d="M4785 5070 l0 -540 113 0 112 0 0 184 0 183 61 7 c34 3 88 6 119 6
31 0 92 9 136 20 121 31 186 82 233 180 21 45 25 70 26 140 0 152 -56 250
-178 310 -81 40 -163 49 -417 50 l-205 0 0 -540z m494 325 c51 -30 74 -67 78
-127 9 -118 -57 -167 -237 -176 l-110 -5 0 168 0 167 118 -3 c95 -3 123 -8
151 -24z"/>
<path d="M5745 5148 c-92 -255 -180 -498 -196 -540 l-28 -78 117 0 117 0 45
125 45 125 211 0 211 0 45 -122 46 -123 116 -3 c64 -1 116 -1 116 0 0 2 -89
244 -198 538 l-197 535 -141 3 -141 3 -168 -463z m385 27 c39 -103 70 -191 70
-196 0 -5 -65 -9 -145 -9 -80 0 -145 1 -145 3 0 4 124 351 135 380 4 10 9 16
11 14 2 -2 36 -88 74 -192z"/>
<path d="M6685 5071 l0 -541 113 0 112 0 0 184 0 184 103 7 c203 14 303 49
378 133 21 24 46 67 55 95 21 60 23 173 6 233 -18 63 -70 133 -126 170 -85 56
-142 66 -406 71 l-235 5 0 -541z m439 338 c27 -7 57 -24 77 -45 28 -29 33 -42
36 -91 8 -121 -51 -168 -224 -179 l-103 -7 0 166 0 167 86 0 c47 0 105 -5 128
-11z"/>
<path d="M5716 4319 c-39 -11 -64 -35 -71 -71 -14 -64 36 -118 109 -118 78 0
124 96 75 153 -29 33 -73 47 -113 36z"/>
<path d="M5960 3850 l0 -470 80 0 80 0 0 41 0 41 37 -32 c53 -47 92 -60 180
-60 128 0 227 59 280 168 25 51 27 68 28 162 0 130 -22 187 -97 255 -61 55
-129 78 -224 77 -80 -1 -134 -19 -176 -59 l-28 -27 0 187 0 187 -80 0 -80 0 0
-470z m433 12 c87 -50 113 -185 54 -274 -26 -39 -98 -78 -144 -78 -74 0 -155
56 -173 119 -31 113 15 223 105 251 42 13 121 4 158 -18z"/>
<path d="M6760 3851 l0 -471 85 0 85 0 -2 468 -3 467 -82 3 -83 4 0 -471z"/>
<path d="M5045 4276 c-147 -37 -262 -143 -305 -284 -24 -77 -27 -240 -6 -318
44 -166 173 -278 349 -306 137 -21 280 18 369 101 45 41 98 133 98 170 0 20
-6 21 -90 21 -51 0 -90 -4 -90 -10 0 -16 -61 -80 -90 -95 -131 -68 -278 -21
-345 109 -26 52 -29 68 -30 155 0 80 4 105 23 146 48 104 128 159 232 159 80
0 133 -25 187 -89 l37 -45 83 0 c80 0 83 1 83 23 0 39 -49 123 -96 167 -101
93 -265 132 -409 96z"/>
<path d="M3908 4180 c-31 -52 -81 -129 -111 -171 -30 -42 -57 -93 -61 -113 -9
-46 -59 -104 -111 -127 -36 -17 -71 -19 -321 -19 l-282 0 -67 -32 c-38 -17
-102 -41 -144 -53 l-76 -22 -3 -52 -3 -52 463 3 463 3 67 32 c81 38 171 120
204 185 34 67 45 160 42 348 l-3 164 -57 -94z"/>
<path d="M7286 4028 c-105 -14 -183 -78 -211 -173 l-14 -45 79 0 c68 0 79 3
84 18 19 59 113 90 175 57 34 -17 61 -66 61 -107 0 -22 -3 -23 -104 -25 -224
-3 -313 -52 -324 -176 -6 -73 11 -120 59 -161 91 -78 257 -73 342 9 l37 36 0
-41 0 -40 81 0 81 0 -4 238 c-3 225 -4 239 -27 285 -48 99 -165 146 -315 125z
m174 -418 c-14 -77 -67 -120 -150 -120 -83 0 -131 52 -99 109 23 40 55 51 160
51 l96 0 -7 -40z"/>
<path d="M8758 4029 c-73 -10 -125 -37 -172 -90 -54 -59 -79 -120 -84 -211 -9
-154 60 -285 180 -339 74 -33 210 -34 283 -1 76 35 128 91 149 160 7 22 6 22
-72 22 -67 0 -82 -3 -98 -21 -29 -32 -69 -49 -116 -49 -77 0 -134 46 -152 123
l-6 27 231 0 232 0 -5 84 c-11 210 -154 324 -370 295z m139 -149 c32 -19 63
-66 63 -95 0 -13 -21 -15 -144 -15 l-145 0 11 33 c14 41 26 56 63 79 40 24
111 23 152 -2z"/>
<path d="M7904 4011 c-58 -27 -111 -77 -142 -135 -25 -46 -27 -61 -27 -161 0
-100 2 -115 27 -160 31 -59 67 -94 128 -126 38 -20 60 -24 135 -24 100 0 126
10 184 67 l34 33 -5 -80 c-3 -60 -10 -92 -28 -123 -55 -98 -209 -111 -282 -23
-26 30 -29 31 -107 31 -92 0 -95 -4 -61 -70 61 -119 214 -179 382 -150 127 22
223 108 247 220 7 31 11 181 11 380 l0 330 -80 0 -80 0 0 -46 0 -46 -32 33
c-50 50 -102 69 -188 69 -52 0 -88 -6 -116 -19z m211 -132 c49 -13 101 -61
116 -107 15 -47 5 -126 -22 -164 -26 -36 -90 -67 -139 -68 -45 0 -118 37 -144
73 -29 40 -34 140 -8 187 23 42 58 69 103 80 48 11 49 11 94 -1z"/>
<path d="M5660 3700 l0 -320 83 0 82 0 0 320 0 320 -82 0 -83 0 0 -320z"/>
</g>
</svg>
