<svg xmlns="http://www.w3.org/2000/svg" viewBox="0 0 320 80" role="img" aria-labelledby="logo-title logo-desc">
  <title id="logo-title">Outils PAP Ciblage</title>
  <desc id="logo-desc">Logo avec une cible rouge et un repère, accompagné du texte Outils PAP Ciblage.</desc>
  <rect width="320" height="80" rx="14" fill="#ffffff"/>
  <g transform="translate(18 12)">
    <g transform="translate(0 0)">
      <circle cx="28" cy="28" r="28" fill="#f4d0d5"/>
      <circle cx="28" cy="28" r="22" fill="#e12539"/>
      <circle cx="28" cy="28" r="14" fill="#ffffff"/>
      <circle cx="28" cy="28" r="6" fill="#e12539"/>
      <path d="M28 50c12 0 22 9 22 22c0 11-14 24-19 28a4 4 0 0 1-4 0c-5-4-19-17-19-28c0-13 10-22 20-22z" fill="#0c172a" opacity="0.85"/>
    </g>
    <g transform="translate(80 7)" fill="#0c172a" font-family="'Inter', 'Segoe UI', Arial, sans-serif" font-weight="700">
      <text x="0" y="26" font-size="22" letter-spacing="0.5">OUTILS PAP</text>
      <text x="0" y="52" font-size="22" letter-spacing="0.5">CIBLAGE</text>
    </g>
    <g transform="translate(80 7)">
      <rect x="0" y="60" width="156" height="4" rx="2" fill="#e12539"/>
    </g>
  </g>
</svg>
